<svg width="179" height="55" viewBox="0 0 179 55" fill="none" xmlns="http://www.w3.org/2000/svg">
    <path d="M156.657 42.7644V30.7002H155.45V36.015H149.206V30.7002H148V42.7644H149.206V37.1073H155.45V42.7644H156.657Z"
          fill="white"/>
    <path d="M166.71 42.7644V33.8467H165.568V38.5582C165.568 39.6016 165.422 40.482 164.639 41.2319C164.085 41.7536 163.498 41.9493 162.748 41.9493C160.71 41.9493 160.042 40.5961 160.042 38.7539V33.8467H158.9V38.7702C158.9 39.7647 159.047 40.8407 159.683 41.6395C160.417 42.5688 161.59 42.9764 162.748 42.9764C163.922 42.9764 165.079 42.471 165.601 41.3787H165.634V42.7644H166.71Z"
          fill="white"/>
    <path d="M178.356 38.2811C178.356 35.6074 176.188 33.6184 173.563 33.6184C172.161 33.6184 170.89 34.2706 170.091 35.4118H170.058V30.7002H168.917V42.7644H170.058V41.1993H170.091C170.873 42.3405 172.178 42.9764 173.563 42.9764C176.237 42.9764 178.356 40.9711 178.356 38.2811ZM177.215 38.33C177.215 40.4168 175.65 41.9493 173.563 41.9493C171.542 41.9493 169.993 40.3027 169.993 38.3137C169.993 36.3247 171.542 34.6455 173.563 34.6455C175.683 34.6455 177.215 36.2269 177.215 38.33Z"
          fill="white"/>
    <path fill-rule="evenodd" clip-rule="evenodd"
          d="M71.4225 24.6338H62.935V12.5645H71.3451V13.8663H64.3224V17.9095H71.1297V19.2027H64.3224V23.3321H71.4225V24.6338ZM77.971 24.6514H76.463L72.9819 16.4702H74.3778L77.23 23.3409L80.0823 16.4702H81.4435L77.971 24.6514ZM83.7871 20.5475C83.7871 22.2371 84.9762 23.5906 86.7081 23.5906C88.4058 23.5906 89.6119 22.2802 89.6119 20.5475C89.6119 18.8233 88.4058 17.513 86.7081 17.513C84.959 17.513 83.7871 18.8664 83.7871 20.5475ZM90.8194 24.6342H89.5357V23.4185C88.8892 24.2549 87.8982 24.798 86.5542 24.798C84.262 24.798 82.4785 23.0047 82.4785 20.5478C82.4785 18.0995 84.262 16.3063 86.5542 16.3063C87.8982 16.3063 88.8892 16.8581 89.5357 17.6857V16.4702H90.8194V24.6342ZM107.406 19.5737V24.634H106.122V19.9959C106.122 18.4442 105.26 17.5303 103.761 17.5303C102.391 17.5303 101.262 18.4787 101.262 20.0304V24.634H99.9783V19.9959C99.9783 18.4442 99.1166 17.5303 97.6261 17.5303C96.2558 17.5303 95.1268 18.4787 95.1268 20.0304V24.634H93.8346V16.4701H95.1098V17.6339C95.7734 16.6596 96.8589 16.3063 97.8588 16.3063C99.2803 16.3063 100.392 16.9528 100.917 18.0218C101.573 16.7545 102.848 16.3063 103.994 16.3063C106.019 16.3063 107.406 17.5994 107.406 19.5737ZM62.8203 30.4871H65.2951L69.1892 39.768H69.2584L73.1178 30.4871H75.5927V42.7462H73.9312V32.6689H73.8966L69.7603 42.7462H68.6527L64.5164 32.6689H64.4817V42.7462H62.8203V30.4871ZM82.6536 38.797C82.2843 38.797 81.9066 38.8172 81.52 38.8575C81.1333 38.8982 80.7814 38.9761 80.4644 39.0913C80.1468 39.2068 79.8873 39.3682 79.6854 39.576C79.4835 39.7838 79.3827 40.0496 79.3827 40.3726C79.3827 40.8461 79.5411 41.1864 79.8587 41.3942C80.1757 41.602 80.6055 41.7058 81.148 41.7058C81.5746 41.7058 81.9382 41.634 82.2382 41.4895C82.5381 41.3452 82.7805 41.1577 82.9652 40.9266C83.1495 40.696 83.2824 40.4392 83.3632 40.156C83.4438 39.8734 83.4843 39.5934 83.4843 39.3165V38.797H82.6536ZM78.2567 35.5429C78.6951 35.1391 79.2027 34.836 79.7797 34.634C80.3566 34.4321 80.9333 34.3309 81.5103 34.3309C82.1101 34.3309 82.6267 34.4061 83.0593 34.5559C83.4921 34.7061 83.8468 34.9082 84.1237 35.162C84.4007 35.416 84.6053 35.7073 84.7382 36.0364C84.8706 36.3654 84.9372 36.7092 84.9372 37.0667V41.257C84.9372 41.5455 84.9427 41.811 84.9545 42.0534C84.9659 42.2958 84.9831 42.5268 85.0064 42.7461H83.6218C83.5874 42.3303 83.5698 41.9149 83.5698 41.4993H83.5354C83.1892 42.0304 82.7795 42.4058 82.3065 42.6248C81.8334 42.8439 81.2854 42.9539 80.6624 42.9539C80.2816 42.9539 79.9182 42.9019 79.572 42.798C79.226 42.6941 78.9231 42.5383 78.6634 42.3303C78.4039 42.1227 78.1988 41.8659 78.0492 41.5599C77.899 41.2543 77.8242 40.8993 77.8242 40.4952C77.8242 39.9643 77.9423 39.5198 78.1789 39.1617C78.4153 38.8041 78.7383 38.5124 79.148 38.2874C79.5574 38.0623 80.0363 37.9008 80.5844 37.8026C81.1324 37.7046 81.718 37.6553 82.3411 37.6553H83.4834V37.309C83.4834 37.1013 83.4429 36.8935 83.3623 36.6857C83.2814 36.4779 83.1602 36.2905 82.9989 36.1231C82.8371 35.9558 82.6355 35.8229 82.393 35.7247C82.1508 35.6267 81.8622 35.5776 81.5278 35.5776C81.2275 35.5776 80.9653 35.6065 80.7404 35.6641C80.5152 35.722 80.3103 35.794 80.1259 35.8807C79.9412 35.9672 79.7738 36.0683 79.624 36.1836C79.4739 36.2991 79.3299 36.4086 79.1914 36.5127L78.2567 35.5429ZM87.2062 34.5387H88.7639V35.8026H88.7985C88.9024 35.5835 89.0408 35.3844 89.2138 35.2052C89.3868 35.0266 89.5799 34.8737 89.7935 34.7465C90.0069 34.6196 90.2405 34.5186 90.4945 34.4434C90.7483 34.3685 91.0021 34.3309 91.256 34.3309C91.5097 34.3309 91.7405 34.3655 91.9482 34.4348L91.879 36.1143C91.7519 36.0797 91.625 36.0511 91.4984 36.0278C91.3712 36.0047 91.2444 35.9932 91.1176 35.9932C90.3561 35.9932 89.7732 36.2069 89.3696 36.6338C88.9657 37.0611 88.7639 37.7246 88.7639 38.6251V42.7461H87.2062V34.5387ZM93.6077 29.6559H95.1653V38.1056L98.6958 34.556H100.859L97.0344 38.2789L101.188 42.7461H98.9728L95.1653 38.4866V42.7461H93.6077V29.6559ZM108.683 37.9662C108.672 37.6201 108.617 37.3026 108.519 37.0139C108.421 36.7256 108.274 36.4746 108.077 36.2608C107.881 36.0473 107.636 35.8799 107.342 35.7586C107.048 35.6374 106.704 35.5768 106.312 35.5768C105.932 35.5768 105.582 35.6491 105.265 35.7932C104.948 35.9378 104.68 36.1252 104.46 36.3561C104.241 36.5871 104.071 36.8437 103.95 37.1264C103.829 37.4094 103.768 37.6893 103.768 37.9662H108.683ZM103.767 39.2135C103.767 39.5715 103.845 39.8975 104.001 40.1919C104.157 40.4862 104.361 40.7372 104.615 40.945C104.869 41.1527 105.163 41.3147 105.498 41.4298C105.832 41.5453 106.179 41.6031 106.536 41.6031C107.021 41.6031 107.442 41.4906 107.8 41.2654C108.157 41.0402 108.486 40.7431 108.786 40.3736L109.963 41.274C109.098 42.3938 107.886 42.9537 106.329 42.9537C105.683 42.9537 105.097 42.8437 104.572 42.6246C104.047 42.4056 103.603 42.1025 103.239 41.7156C102.876 41.3289 102.596 40.873 102.4 40.3476C102.204 39.8227 102.106 39.2542 102.106 38.6421C102.106 38.0305 102.212 37.462 102.426 36.9365C102.639 36.4114 102.934 35.9556 103.309 35.5687C103.684 35.1821 104.131 34.8791 104.65 34.6598C105.169 34.4406 105.734 34.3307 106.346 34.3307C107.073 34.3307 107.687 34.4579 108.189 34.7116C108.691 34.9656 109.104 35.2977 109.427 35.7073C109.75 36.1171 109.983 36.5789 110.128 37.0925C110.272 37.6062 110.344 38.1286 110.344 38.6595V39.2135H103.767ZM116.609 35.8887H114.376V39.6115C114.376 39.8426 114.382 40.0702 114.394 40.2954C114.405 40.5204 114.448 40.7226 114.524 40.9016C114.598 41.0805 114.714 41.2248 114.87 41.3343C115.026 41.4441 115.253 41.4988 115.553 41.4988C115.738 41.4988 115.928 41.4814 116.125 41.4468C116.321 41.4121 116.499 41.3489 116.661 41.2564V42.6762C116.476 42.78 116.237 42.8521 115.943 42.8926C115.649 42.9329 115.421 42.9533 115.259 42.9533C114.659 42.9533 114.195 42.8694 113.866 42.7022C113.537 42.535 113.295 42.3185 113.139 42.053C112.983 41.7875 112.891 41.4902 112.862 41.1611C112.833 40.8323 112.819 40.5005 112.819 40.1655V35.8887H111.019V34.5381H112.819V32.2353H114.376V34.5381H116.609V35.8887ZM118.737 42.7461H120.295V34.5387H118.737V42.7461ZM118.373 31.5946C118.373 31.2829 118.485 31.0146 118.71 30.7894C118.935 30.5643 119.203 30.4518 119.515 30.4518C119.826 30.4518 120.095 30.5643 120.32 30.7894C120.545 31.0146 120.657 31.2829 120.657 31.5946C120.657 31.9061 120.545 32.1746 120.32 32.3996C120.095 32.6247 119.826 32.7374 119.515 32.7374C119.203 32.7374 118.935 32.6247 118.71 32.3996C118.485 32.1746 118.373 31.9061 118.373 31.5946ZM122.769 34.5387H124.327V35.8026H124.362C124.558 35.3642 124.898 35.0091 125.383 34.7377C125.867 34.4667 126.427 34.3309 127.062 34.3309C127.454 34.3309 127.832 34.3914 128.195 34.5127C128.559 34.634 128.876 34.8217 129.147 35.0754C129.418 35.3295 129.634 35.6556 129.796 36.0538C129.957 36.4519 130.038 36.9226 130.038 37.4651V42.7461H128.481V37.8978C128.481 37.5168 128.429 37.1909 128.325 36.9195C128.221 36.6484 128.083 36.4291 127.91 36.2616C127.736 36.0944 127.537 35.9731 127.312 35.8979C127.087 35.8229 126.854 35.7854 126.612 35.7854C126.288 35.7854 125.989 35.8372 125.712 35.9412C125.435 36.0451 125.192 36.2096 124.985 36.4347C124.777 36.6597 124.615 36.9454 124.5 37.2917C124.385 37.6381 124.327 38.0479 124.327 38.5212V42.7461H122.769V34.5387ZM136.354 35.7843C135.939 35.7843 135.564 35.8566 135.229 36.0007C134.895 36.1451 134.612 36.3413 134.381 36.5893C134.15 36.8378 133.971 37.1377 133.845 37.4897C133.718 37.8419 133.654 38.2258 133.654 38.6412C133.654 39.4724 133.896 40.139 134.381 40.6411C134.866 41.1434 135.523 41.3944 136.354 41.3944C137.185 41.3944 137.843 41.1434 138.327 40.6411C138.812 40.139 139.054 39.4724 139.054 38.6412C139.054 38.2258 138.99 37.8419 138.864 37.4897C138.737 37.1377 138.558 36.8378 138.327 36.5893C138.096 36.3413 137.814 36.1451 137.479 36.0007C137.144 35.8566 136.769 35.7843 136.354 35.7843ZM140.613 42.6764C140.613 43.3 140.506 43.8682 140.293 44.3821C140.079 44.8955 139.777 45.3401 139.384 45.7153C138.992 46.0904 138.519 46.3819 137.965 46.5897C137.411 46.7975 136.8 46.9014 136.131 46.9014C135.346 46.9014 134.628 46.7916 133.976 46.5724C133.324 46.353 132.704 45.972 132.115 45.4296L133.171 44.1137C133.575 44.5523 134.013 44.8841 134.487 45.1092C134.96 45.3345 135.496 45.447 136.096 45.447C136.673 45.447 137.152 45.3631 137.533 45.196C137.913 45.0284 138.216 44.812 138.441 44.5465C138.666 44.281 138.825 43.9779 138.917 43.6376C139.009 43.2968 139.055 42.9535 139.055 42.6072V41.3953H139.004C138.703 41.8917 138.297 42.2583 137.783 42.4947C137.27 42.7315 136.73 42.8496 136.165 42.8496C135.565 42.8496 135.009 42.7431 134.495 42.5294C133.982 42.3159 133.54 42.0214 133.171 41.6463C132.802 41.2713 132.514 40.8268 132.306 40.313C132.098 39.7995 131.994 39.2424 131.994 38.6421C131.994 38.0421 132.092 37.4792 132.289 36.9539C132.485 36.4288 132.764 35.97 133.128 35.5773C133.491 35.185 133.93 34.8791 134.443 34.6598C134.957 34.4405 135.531 34.3307 136.165 34.3307C136.719 34.3307 137.258 34.452 137.783 34.6942C138.308 34.9367 138.721 35.2774 139.021 35.7159H139.055V34.5385H140.613V42.6764Z"
          fill="white"/>
    <mask id="mask0" mask-type="alpha" maskUnits="userSpaceOnUse" x="23" y="15" width="31" height="40">
        <path fill-rule="evenodd" clip-rule="evenodd" d="M23.6523 15.168H53.8626V54.0034H23.6523V15.168Z" fill="white"/>
    </mask>
    <g mask="url(#mask0)">
        <path fill-rule="evenodd" clip-rule="evenodd"
              d="M35.2409 16.729C34.3963 17.1909 33.6117 17.7427 32.8985 18.3711C31.3299 19.7539 30.1081 21.5073 29.3586 23.4876C29.1955 23.9212 29.0738 24.4029 28.9861 24.9255C28.9423 25.1868 28.9069 25.4583 28.879 25.739C28.8697 25.8325 28.8613 25.9272 28.8536 26.0227C28.7081 27.8387 28.851 30.0116 29.039 32.2992C29.0687 32.6604 29.0994 33.0244 29.1304 33.3904C29.1875 34.0675 29.2457 34.7557 29.2983 35.4502C29.3511 36.1445 29.3984 36.8449 29.434 37.5462C29.4517 37.8968 29.4667 38.2475 29.4779 38.5981C29.4833 38.7733 29.488 38.9484 29.4918 39.1232C29.4991 39.4731 29.5021 39.8221 29.5003 40.1698C29.4995 40.3438 29.4974 40.5171 29.4939 40.6902C29.4871 41.0363 29.4749 41.3807 29.4567 41.7226C29.4477 41.8937 29.4369 42.0641 29.4247 42.2338C29.2412 44.7798 28.6933 47.1741 27.4494 49.1436C27.0934 49.7035 26.6525 50.2658 26.147 50.8104C25.4967 51.5106 24.7388 52.1818 23.9143 52.7823C23.8488 52.8301 23.7947 52.8892 23.7531 52.9554C23.7323 52.9886 23.7146 53.0236 23.7001 53.0599C23.6856 53.0962 23.6742 53.1339 23.6662 53.1725C23.6379 53.3072 23.6531 53.452 23.71 53.587C23.7182 53.6062 23.7246 53.626 23.7345 53.6448L23.7347 53.6451C23.8204 53.8062 23.964 53.9235 24.1388 53.9753C24.2698 54.0141 24.4068 54.0126 24.5351 53.9719C24.5778 53.9585 24.6195 53.9406 24.6598 53.9185L35.9307 47.7558C36.6985 47.3361 37.4365 46.9212 38.1465 46.5103C38.6198 46.2364 39.0803 45.9642 39.5286 45.6934C40.4254 45.152 41.2728 44.6166 42.0734 44.085C43.0743 43.4204 44.002 42.7621 44.8616 42.1057C45.2052 41.8433 45.538 41.5809 45.8602 41.3188C46.0212 41.1878 46.1798 41.0567 46.3356 40.9256C48.6727 38.9591 50.4199 36.9888 51.7048 34.9038C52.0156 34.3995 52.2992 33.8888 52.5577 33.3699C53.7432 30.9884 54.1193 28.3051 53.6927 25.7172C53.6318 25.3474 53.5544 24.9798 53.4606 24.6151C53.2109 23.6428 52.8448 22.6926 52.3627 21.7863C51.3898 19.958 50.0288 18.4722 48.4346 17.3752C47.8473 16.9713 47.2283 16.6198 46.5855 16.3233C43.0955 14.7147 38.9008 14.7279 35.2409 16.729Z"
              fill="#F9C32F"/>
    </g>
    <mask id="mask1" mask-type="alpha" maskUnits="userSpaceOnUse" x="0" y="14" width="28" height="40">
        <path fill-rule="evenodd" clip-rule="evenodd" d="M0 14.8008H27.3053V53.9509H0V14.8008Z" fill="white"/>
    </mask>
    <g mask="url(#mask1)">
        <path fill-rule="evenodd" clip-rule="evenodd"
              d="M25.79 47.459C25.8382 47.3712 25.8855 47.2828 25.9316 47.1936C26.0702 46.9265 26.1995 46.6537 26.3185 46.3757C26.4773 46.0051 26.6184 45.6254 26.7408 45.2374C26.8019 45.0434 26.8583 44.8474 26.91 44.6496C26.9357 44.5508 26.9603 44.4513 26.9836 44.3513C27.0799 43.9402 27.155 43.5215 27.2087 43.0959C27.232 42.9106 27.2513 42.7238 27.2663 42.536C27.292 42.2125 27.3053 41.8853 27.3053 41.5555C27.3053 40.9676 27.2617 40.3841 27.1791 39.8083C26.8669 37.6321 25.9765 35.5713 24.5876 33.8435C24.4704 33.6977 24.3499 33.5544 24.2257 33.4137C23.1778 32.23 21.373 31.2126 19.2525 30.2289C18.8486 30.0416 18.4332 29.8555 18.0095 29.6697C17.9035 29.6232 17.7971 29.5769 17.6902 29.5303C17.0485 29.2517 16.3896 28.9733 15.7238 28.6921C15.1078 28.4317 14.4815 28.1672 13.8526 27.8952C12.9093 27.487 11.9597 27.0625 11.0293 26.6109C10.7194 26.4604 10.4114 26.3069 10.1064 26.1499C9.34418 25.7577 8.60134 25.3442 7.89221 24.904C5.76527 23.5827 3.94414 22.018 2.82579 20.0488C2.68959 19.8079 2.56049 19.5535 2.43911 19.2876C1.91289 18.1358 1.53028 16.7684 1.34268 15.3493C1.32212 15.1929 1.24034 15.0559 1.12152 14.9579C1.0027 14.8598 0.846998 14.8008 0.678294 14.8008C0.538009 14.8008 0.407551 14.8431 0.299314 14.9153C0.263336 14.9393 0.229625 14.9668 0.198938 14.9971C0.168251 15.0273 0.140284 15.0606 0.115946 15.0963C0.0427807 15.2032 0 15.3319 0 15.4705V27.968C0 28.9157 0.0120935 29.8293 0.036734 30.7106C0.0693864 31.8857 0.124563 33.0035 0.202566 34.0683C0.222067 34.3345 0.243079 34.5973 0.265452 34.8569C0.804066 41.0871 2.18348 45.4415 4.60354 48.8244C4.96226 49.3261 5.35772 49.796 5.78507 50.232C6.0416 50.4937 6.30963 50.7431 6.58823 50.9798C8.81615 52.873 11.7163 53.9509 14.7677 53.9509C19.5206 53.9509 23.6642 51.3226 25.79 47.459Z"
              fill="#F9C32F"/>
    </g>
    <path fill-rule="evenodd" clip-rule="evenodd"
          d="M9.49109 23.1331C10.3122 23.6013 11.1775 23.9731 12.0702 24.2455C14.0337 24.8447 16.128 24.9629 18.1686 24.5691C18.6149 24.482 19.0802 24.3354 19.5618 24.1394C19.8028 24.0414 20.0478 23.9312 20.2965 23.8099C20.3795 23.7693 20.4629 23.7278 20.5468 23.6848C22.1388 22.8708 23.8805 21.6314 25.6946 20.2955C25.9812 20.0847 26.2694 19.8713 26.5592 19.6568C27.0953 19.2601 27.6405 18.8567 28.1934 18.4547C28.7462 18.0529 29.3069 17.6526 29.8745 17.2613C30.1581 17.0657 30.4437 16.8725 30.7306 16.6826C30.874 16.5877 31.018 16.4936 31.1622 16.4003C31.4508 16.2139 31.7408 16.0314 32.032 15.8537C32.1777 15.7649 32.3237 15.6772 32.4701 15.591C32.7626 15.4183 33.0568 15.251 33.3518 15.0899C33.4992 15.0095 33.6472 14.9307 33.7952 14.8534C36.0169 13.6949 38.2993 12.919 40.5856 12.9444C41.2371 12.9536 41.9337 13.0323 42.6493 13.1745C43.5695 13.3573 44.5208 13.6453 45.4471 14.0253C45.5209 14.0554 45.5982 14.0703 45.6748 14.0709C45.7134 14.0712 45.7516 14.068 45.7896 14.0615C45.8273 14.055 45.8647 14.0448 45.901 14.0317C46.0281 13.986 46.1413 13.8988 46.2248 13.7814C46.2367 13.7648 46.2499 13.7492 46.2604 13.7312V13.731C46.3511 13.5763 46.375 13.3956 46.3283 13.223C46.2931 13.0932 46.2213 12.9795 46.1212 12.8933C46.088 12.8644 46.0515 12.8387 46.0124 12.8163L35.0558 6.56734C34.3097 6.14175 33.5825 5.73824 32.8734 5.3565C32.4007 5.10181 31.936 4.85696 31.4786 4.62162C30.5643 4.15081 29.6803 3.71811 28.8236 3.32246C27.7527 2.82791 26.7246 2.39127 25.7334 2.01105C25.3369 1.8589 24.9463 1.71568 24.5612 1.58138C24.3688 1.51423 24.1776 1.44934 23.9877 1.38658C21.1407 0.445556 18.5943 0 16.1903 0C15.6089 0 15.0361 0.0260135 14.4694 0.0772842C11.869 0.313069 9.4335 1.38144 7.49128 3.07155C7.21389 3.31309 6.94647 3.56732 6.69024 3.83366C6.0065 4.54358 5.40137 5.33957 4.89284 6.20966C3.86671 7.96541 3.32704 9.86893 3.2321 11.7673C3.19703 12.4668 3.22243 13.1654 3.30618 13.8556C3.76074 17.6031 5.93334 21.1039 9.49109 23.1331Z"
          fill="#F9C32F"/>
    <path fill-rule="evenodd" clip-rule="evenodd"
          d="M45.3808 24.9178L36.6198 16.1451L36.5867 16.0868L36.4161 16.1591L36.1272 16.2904L35.8579 16.4218L35.5559 16.5598L35.3609 16.6885L35.1653 16.7881L35.0211 16.8641L34.9113 16.9224L34.7852 16.9934L33.055 16.8247L33.0426 15.2606L33.538 14.9882L34.1116 14.6884L34.4661 14.5141L34.8177 14.3509L34.8188 14.3507L29.1879 8.71715C28.2543 7.78309 26.7407 7.78309 25.8072 8.71715L9.61416 24.9178C8.6807 25.8519 8.6807 27.3661 9.61416 28.3001L25.8072 44.5008C26.0893 44.7833 26.4249 44.9787 26.7809 45.0903C26.859 44.9413 27.072 43.9315 27.072 43.9315L28.1183 41.7954L29.4073 41.201C29.4073 41.201 29.4573 41.2815 29.4608 41.4881C29.4644 41.6945 29.4144 42.2648 29.3787 42.8666C29.3359 43.4683 29.1467 44.5105 29.1467 44.5105L29.3734 44.3152L45.3808 28.3001C46.3144 27.3661 46.3144 25.8519 45.3808 24.9178Z"
          fill="black" fill-opacity="0.1"/>
    <path fill-rule="evenodd" clip-rule="evenodd"
          d="M42.2504 28.7483L26.9524 44.0536C25.7716 45.2349 23.8574 45.2349 22.6767 44.0536L7.37863 28.7483C6.19801 27.567 6.19801 25.6518 7.37863 24.4706L22.6767 9.1653C23.8574 7.98396 25.7716 7.98396 26.9524 9.1653L42.2504 24.4706C43.4311 25.6518 43.4311 27.567 42.2504 28.7483Z"
          fill="white"/>
    <path fill-rule="evenodd" clip-rule="evenodd"
          d="M40.0052 28.3211L26.5255 41.8071C25.581 42.7521 24.0495 42.7521 23.105 41.8071L9.62548 28.3211C8.68083 27.3762 8.68083 25.8439 9.62548 24.8988L23.105 11.4128C24.0495 10.4679 25.581 10.4679 26.5255 11.4128L40.0052 24.8988C40.9497 25.8439 40.9497 27.3762 40.0052 28.3211Z"
          fill="#1E2026"/>
    <path fill-rule="evenodd" clip-rule="evenodd"
          d="M16.696 26.1981H21.4055C21.1875 24.7855 20.3632 23.9606 19.1029 23.9606C17.691 23.9606 16.9044 24.8709 16.696 26.1981ZM23.4318 26.9659C23.4318 27.2219 23.4129 27.478 23.3939 27.7055H16.6852C16.9503 29.3361 18.0969 30.0187 19.3856 30.0187C20.2954 30.0187 21.2618 29.6584 22.0105 29.0612L22.996 30.4738C21.8875 31.4218 20.6366 31.7536 19.2624 31.7536C16.5429 31.7536 14.6191 29.8575 14.6191 26.9756C14.6191 24.1313 16.467 22.1973 19.1392 22.1973C21.6789 22.1973 23.4224 24.1313 23.4318 26.9659Z"
          fill="white"/>
    <path fill-rule="evenodd" clip-rule="evenodd" d="M21.8779 33.4945H32.2192V19.6133H21.8779V33.4945Z" fill="#1E2026"/>
    <path fill-rule="evenodd" clip-rule="evenodd"
          d="M33.6288 31.077V26.4297C33.6288 25.3585 33.3383 24.2567 32.0235 24.2567C31.4576 24.2567 30.9072 24.5588 30.6168 25.0415C30.3261 25.5093 30.3109 26.2184 30.3109 26.7467V31.077H28.2772V26.4297C28.2772 25.3281 27.8645 24.2567 26.5801 24.2567C25.0512 24.2567 24.9594 25.7657 24.9594 26.8974V31.077H22.9258V22.7028H24.7914V23.4119H24.8218C25.2804 22.6727 26.2133 22.416 27.039 22.416C28.048 22.416 28.9349 22.8838 29.4853 23.7287C30.1581 22.7781 31.0907 22.416 32.2221 22.416C33.3077 22.416 34.3628 22.8233 35.0203 23.7136C35.5249 24.4078 35.6625 25.3585 35.6625 26.1882V31.077H33.6288Z"
          fill="white"/>
</svg>
