<svg width="58" height="58" viewBox="0 0 58 58" fill="none" xmlns="http://www.w3.org/2000/svg">
    <mask id="mask0" mask-type="alpha" maskUnits="userSpaceOnUse" x="25" y="16" width="33" height="42">
        <path fill-rule="evenodd" clip-rule="evenodd" d="M25.041 16.2109H57.0248V57.3065H25.041V16.2109Z" fill="white"/>
    </mask>
    <g mask="url(#mask0)">
        <path fill-rule="evenodd" clip-rule="evenodd"
              d="M37.3099 17.8628C36.4157 18.3516 35.5851 18.9356 34.83 19.6005C33.1692 21.0638 31.8758 22.9192 31.0823 25.0148C30.9096 25.4736 30.7808 25.9834 30.6879 26.5363C30.6415 26.8129 30.6041 27.1001 30.5745 27.3972C30.5647 27.4961 30.5557 27.5963 30.5476 27.6974C30.3936 29.6191 30.5449 31.9184 30.7439 34.3392C30.7753 34.7214 30.8078 35.1066 30.8406 35.4939C30.9011 36.2104 30.9627 36.9386 31.0184 37.6735C31.0743 38.4083 31.1244 39.1495 31.1621 39.8916C31.1809 40.2626 31.1967 40.6337 31.2085 41.0047C31.2143 41.19 31.2193 41.3753 31.2233 41.5604C31.231 41.9305 31.2342 42.2999 31.2322 42.6678C31.2314 42.8519 31.2292 43.0353 31.2255 43.2186C31.2183 43.5847 31.2053 43.9492 31.1861 44.311C31.1765 44.492 31.1652 44.6724 31.1522 44.852C30.9579 47.5461 30.3779 50.0798 29.0609 52.1638C28.684 52.7563 28.2173 53.3514 27.6822 53.9277C26.9937 54.6687 26.1912 55.3789 25.3183 56.0143C25.249 56.0649 25.1917 56.1275 25.1477 56.1976C25.1256 56.2326 25.1069 56.2697 25.0915 56.3082C25.0762 56.3466 25.0642 56.3864 25.0557 56.4272C25.0258 56.5698 25.0418 56.723 25.1021 56.8659C25.1108 56.8862 25.1175 56.9072 25.128 56.927L25.1282 56.9274C25.2189 57.0978 25.371 57.222 25.556 57.2767C25.6947 57.3179 25.8397 57.3163 25.9756 57.2732C26.0208 57.259 26.0649 57.2401 26.1077 57.2167L38.0401 50.6953C38.853 50.2512 39.6343 49.8122 40.3861 49.3773C40.8871 49.0875 41.3746 48.7994 41.8493 48.5129C42.7987 47.94 43.6959 47.3734 44.5435 46.8109C45.6031 46.1077 46.5853 45.411 47.4953 44.7164C47.8591 44.4387 48.2115 44.1611 48.5526 43.8837C48.723 43.7451 48.8909 43.6063 49.0559 43.4676C51.5302 41.3867 53.3799 39.3017 54.7403 37.0953C55.0694 36.5617 55.3696 36.0213 55.6433 35.4722C56.8983 32.9521 57.2965 30.1126 56.8449 27.3741C56.7804 26.9828 56.6984 26.5938 56.5992 26.2079C56.3348 25.179 55.9472 24.1734 55.4368 23.2145C54.4068 21.2797 52.9659 19.7074 51.2781 18.5467C50.6563 18.1192 50.001 17.7472 49.3204 17.4336C45.6255 15.7313 41.1847 15.7453 37.3099 17.8628Z"
              fill="#F9C32F"/>
    </g>
    <mask id="mask1" mask-type="alpha" maskUnits="userSpaceOnUse" x="0" y="15" width="29" height="43">
        <path fill-rule="evenodd" clip-rule="evenodd" d="M0 15.8223H28.9082V57.2508H0V15.8223Z" fill="white"/>
    </mask>
    <g mask="url(#mask1)">
        <path fill-rule="evenodd" clip-rule="evenodd"
              d="M27.304 50.3811C27.355 50.2882 27.4051 50.1947 27.4539 50.1003C27.6007 49.8176 27.7375 49.5289 27.8635 49.2348C28.0317 48.8427 28.181 48.4408 28.3106 48.0303C28.3753 47.8249 28.435 47.6175 28.4897 47.4082C28.5169 47.3037 28.543 47.1984 28.5677 47.0926C28.6696 46.6576 28.7492 46.2144 28.806 45.7641C28.8306 45.568 28.8511 45.3704 28.8669 45.1716C28.8942 44.8293 28.9082 44.4831 28.9082 44.134C28.9082 43.5119 28.8621 42.8945 28.7746 42.2852C28.4441 39.9824 27.5015 37.8016 26.031 35.9733C25.907 35.819 25.7794 35.6673 25.6478 35.5184C24.5384 34.2658 22.6277 33.1892 20.3828 32.1482C19.9551 31.9501 19.5153 31.7531 19.0667 31.5566C18.9545 31.5073 18.8419 31.4583 18.7287 31.409C18.0493 31.1142 17.3517 30.8196 16.6469 30.5221C15.9947 30.2465 15.3316 29.9665 14.6659 29.6788C13.6672 29.2468 12.6618 28.7976 11.6767 28.3197C11.3486 28.1605 11.0226 27.998 10.6997 27.8319C9.89274 27.4169 9.10629 26.9793 8.35552 26.5135C6.10372 25.1153 4.17568 23.4595 2.99168 21.3758C2.84748 21.1208 2.71081 20.8516 2.58229 20.5703C2.02518 19.3514 1.62011 17.9044 1.4215 16.4027C1.39974 16.2373 1.31315 16.0923 1.18736 15.9886C1.06156 15.8847 0.896721 15.8223 0.718113 15.8223C0.569593 15.8223 0.431476 15.8671 0.316885 15.9434C0.278795 15.9689 0.243105 15.998 0.210617 16.03C0.178128 16.062 0.14852 16.0972 0.122753 16.135C0.0452922 16.2481 0 16.3843 0 16.5309V29.7558C0 30.7586 0.0128034 31.7254 0.0388904 32.658C0.0734597 33.9015 0.131875 35.0844 0.214458 36.2111C0.235103 36.4928 0.257349 36.7709 0.281035 37.0456C0.851269 43.6384 2.31166 48.2462 4.87379 51.826C5.25357 52.3569 5.67224 52.8541 6.12468 53.3155C6.39628 53.5924 6.68003 53.8563 6.97499 54.1068C9.33371 56.1102 12.4041 57.2508 15.6346 57.2508C20.6665 57.2508 25.0534 54.4696 27.304 50.3811Z"
              fill="#F9C32F"/>
    </g>
    <path fill-rule="evenodd" clip-rule="evenodd"
          d="M10.0479 24.6395C10.9173 25.135 11.8333 25.5284 12.7784 25.8166C14.8572 26.4507 17.0744 26.5759 19.2348 26.1591C19.7073 26.067 20.1999 25.9119 20.7098 25.7045C20.9649 25.6007 21.2243 25.4841 21.4876 25.3557C21.5755 25.3128 21.6638 25.2688 21.7526 25.2234C23.4381 24.362 25.2821 23.0505 27.2026 21.6368C27.506 21.4137 27.8112 21.1879 28.118 20.9609C28.6855 20.5411 29.2628 20.1143 29.8481 19.6889C30.4334 19.2637 31.027 18.8401 31.6279 18.426C31.9282 18.2191 32.2305 18.0145 32.5343 17.8137C32.6861 17.7132 32.8385 17.6136 32.9912 17.5149C33.2967 17.3177 33.6038 17.1246 33.9121 16.9365C34.0663 16.8426 34.2209 16.7497 34.3759 16.6585C34.6856 16.4757 34.997 16.2987 35.3094 16.1283C35.4654 16.0431 35.6221 15.9598 35.7788 15.878C38.131 14.652 40.5473 13.831 42.9678 13.8579C43.6576 13.8677 44.395 13.9509 45.1527 14.1013C46.1269 14.2948 47.134 14.5996 48.1148 15.0017C48.1929 15.0336 48.2746 15.0493 48.3558 15.0499C48.3966 15.0502 48.4371 15.0469 48.4773 15.04C48.5173 15.0331 48.5568 15.0224 48.5952 15.0085C48.7298 14.9601 48.8497 14.8678 48.938 14.7436C48.9507 14.726 48.9646 14.7095 48.9758 14.6905V14.6903C49.0718 14.5266 49.0971 14.3353 49.0476 14.1527C49.0104 14.0154 48.9343 13.895 48.8284 13.8038C48.7932 13.7733 48.7546 13.746 48.7132 13.7224L37.1134 7.1097C36.3234 6.65934 35.5536 6.23235 34.8029 5.8284C34.3024 5.55889 33.8104 5.29978 33.3261 5.05075C32.3582 4.55254 31.4223 4.09465 30.5153 3.67598C29.3816 3.15264 28.2931 2.6906 27.2437 2.28825C26.8239 2.12724 26.4104 1.97568 26.0027 1.83357C25.799 1.76251 25.5966 1.69385 25.3955 1.62743C22.3814 0.631643 19.6855 0.160156 17.1404 0.160156C16.5248 0.160156 15.9184 0.187684 15.3184 0.241938C12.5654 0.491445 9.98692 1.62199 7.93069 3.41047C7.63701 3.66606 7.3539 3.93509 7.08262 4.21693C6.35875 4.96817 5.7181 5.81047 5.17971 6.7312C4.09334 8.58914 3.52199 10.6034 3.42148 12.6123C3.38435 13.3525 3.41124 14.0917 3.4999 14.8222C3.98115 18.7877 6.28129 22.4922 10.0479 24.6395Z"
          fill="#F9C32F"/>
    <path fill-rule="evenodd" clip-rule="evenodd"
          d="M48.044 26.5284L38.7688 17.2451L38.7337 17.1834L38.553 17.2599L38.2472 17.3989L37.9621 17.5379L37.6424 17.6839L37.4359 17.8201L37.2288 17.9256L37.0761 18.0059L36.96 18.0677L36.8265 18.1427L34.9946 17.9643L34.9815 16.3091L35.506 16.0209L36.1133 15.7037L36.4886 15.5192L36.8609 15.3465L36.862 15.3463L30.9006 9.38487C29.9121 8.39645 28.3096 8.39645 27.3214 9.38487L10.1777 26.5284C9.18946 27.5168 9.18946 29.1191 10.1777 30.1076L27.3214 47.251C27.62 47.55 27.9753 47.7568 28.3522 47.8749C28.4349 47.7172 28.6604 46.6486 28.6604 46.6486L29.7681 44.3882L31.1328 43.7592C31.1328 43.7592 31.1858 43.8444 31.1894 44.063C31.1933 44.2814 31.1403 44.885 31.1025 45.5218C31.0572 46.1584 30.8569 47.2613 30.8569 47.2613L31.0969 47.0547L48.044 30.1076C49.0325 29.1191 49.0325 27.5168 48.044 26.5284Z"
          fill="black" fill-opacity="0.1"/>
    <path fill-rule="evenodd" clip-rule="evenodd"
          d="M44.7313 30.5821L28.5353 46.7782C27.2852 48.0283 25.2586 48.0283 24.0086 46.7782L7.81245 30.5821C6.56252 29.332 6.56252 27.3054 7.81245 26.0555L24.0086 9.85945C25.2586 8.60935 27.2852 8.60935 28.5353 9.85945L44.7313 26.0555C45.9814 27.3054 45.9814 29.332 44.7313 30.5821Z"
          fill="white"/>
    <path fill-rule="evenodd" clip-rule="evenodd"
          d="M42.3537 30.1286L28.0827 44.3995C27.0827 45.3994 25.4613 45.3994 24.4614 44.3995L10.1905 30.1286C9.1904 29.1287 9.1904 27.5073 10.1905 26.5072L24.4614 12.2363C25.4613 11.2363 27.0827 11.2363 28.0827 12.2363L42.3537 26.5072C43.3537 27.5073 43.3537 29.1287 42.3537 30.1286Z"
          fill="#13093A"/>
    <path fill-rule="evenodd" clip-rule="evenodd"
          d="M17.6748 27.883H22.6607C22.43 26.3882 21.5573 25.5154 20.223 25.5154C18.7282 25.5154 17.8955 26.4787 17.6748 27.883ZM24.8076 28.6956C24.8076 28.9665 24.7876 29.2375 24.7674 29.4782H17.6648C17.9456 31.2038 19.1595 31.926 20.5239 31.926C21.487 31.926 22.5101 31.5448 23.3028 30.9128L24.3462 32.4076C23.1726 33.4108 21.8482 33.7619 20.3934 33.7619C17.5142 33.7619 15.4775 31.7554 15.4775 28.7058C15.4775 25.696 17.4339 23.6494 20.263 23.6494C22.9517 23.6494 24.7976 25.696 24.8076 28.6956Z"
          fill="white"/>
    <path fill-rule="evenodd" clip-rule="evenodd" d="M23.1621 35.6041H34.1105V20.915H23.1621V35.6041Z" fill="#13093A"/>
    <path fill-rule="evenodd" clip-rule="evenodd"
          d="M34.8008 33.2027V28.4251C34.8008 27.3238 34.5062 26.1912 33.1722 26.1912C32.5981 26.1912 32.0398 26.5017 31.7451 26.998C31.4502 27.4789 31.4348 28.2079 31.4348 28.7509V33.2027H29.3715V28.4251C29.3715 27.2926 28.9528 26.1912 27.6498 26.1912C26.0986 26.1912 26.0055 27.7425 26.0055 28.9058V33.2027H23.9424V24.5936H25.8351V25.3226H25.8659C26.3312 24.5627 27.2777 24.2988 28.1153 24.2988C29.139 24.2988 30.0387 24.7798 30.5971 25.6483C31.2797 24.6711 32.2259 24.2988 33.3737 24.2988C34.4751 24.2988 35.5455 24.7175 36.2126 25.6328C36.7245 26.3464 36.8641 27.3238 36.8641 28.1768V33.2027H34.8008Z"
          fill="white"/>
</svg>
