<?xml version="1.0" encoding="UTF-8"?>
<svg width="120" height="40" id="a" xmlns="http://www.w3.org/2000/svg" viewBox="0 0 1278.51 325.7">
    <defs>
        <style>.b{fill:#fff;}</style>
    </defs>
    <g>
        <g>
            <path class="b"
                  d="M82.04,320.34c38.4,0,69.65-30.51,69.65-68.01,0-16.45-6.08-32.31-17.11-44.67-8.87-9.9-27.5-17.67-47.23-25.91-27.37-11.42-58.4-24.37-71.65-47.42-4.03-7.05-6.96-16.2-8.24-25.78-.23-1.72-1.82-3.01-3.69-3.01-2.08,0-3.77,1.65-3.77,3.67v68.57c0,55.46,7.65,89.69,25.57,114.44,12.76,17.61,33.86,28.13,56.46,28.13Z"/>
            <path class="b"
                  d="M169.52,319.24c-1.41,1.05-1.76,3.04-.83,4.62h0c.5,.85,1.32,1.46,2.29,1.71,.97,.25,1.99,.12,2.86-.37l60.86-34.28c49.23-27.73,75.78-51.31,88.79-78.83,9.26-19.58,8.03-42.68-3.27-61.77-9.3-15.71-24.32-26.95-42.3-31.64-6-1.57-12.09-2.34-18.14-2.34-12.08,0-24,3.09-34.75,9.14-14.6,8.22-25.64,21.29-31.1,36.79-4.35,12.45-1.94,32.08,.62,52.86,3.55,28.84,7.56,61.53-6.27,84.25-4.24,6.93-10.9,13.98-18.77,19.85Z"/>
            <path class="b"
                  d="M50.23,34.07c-19.2,32.45-7.74,74.1,25.54,92.86,14.6,8.22,31.72,11.02,48.21,7.88,13.22-2.55,29.44-14.4,46.61-26.95,23.83-17.42,50.82-37.13,77.92-36.83,8.27,.12,17.86,2.22,27.01,5.93,1.64,.66,3.58-.03,4.52-1.61h0c.5-.85,.64-1.84,.38-2.79-.26-.95-.88-1.74-1.76-2.23l-60.86-34.29C173.57,11.13,141.48,0,112.99,0c-3.23,0-6.41,.14-9.56,.42-22.01,1.97-41.9,14.55-53.2,33.65Z"/>
        </g>
        <g>
            <path class="b"
                  d="M82.04,320.34c38.4,0,69.65-30.51,69.65-68.01,0-16.45-6.08-32.31-17.11-44.67-8.87-9.9-27.5-17.67-47.23-25.91-27.37-11.42-58.4-24.37-71.65-47.42-4.03-7.05-6.96-16.2-8.24-25.78-.23-1.72-1.82-3.01-3.69-3.01-2.08,0-3.77,1.65-3.77,3.67v68.57c0,55.46,7.65,89.69,25.57,114.44,12.76,17.61,33.86,28.13,56.46,28.13Z"/>
            <path class="b"
                  d="M169.52,319.24c-1.41,1.05-1.76,3.04-.83,4.62h0c.5,.85,1.32,1.46,2.29,1.71,.97,.25,1.99,.12,2.86-.37l60.86-34.28c49.23-27.73,75.78-51.31,88.79-78.83,9.26-19.58,8.03-42.68-3.27-61.77-9.3-15.71-24.32-26.95-42.3-31.64-6-1.57-12.09-2.34-18.14-2.34-12.08,0-24,3.09-34.75,9.14-14.6,8.22-25.64,21.29-31.1,36.79-4.35,12.45-1.94,32.08,.62,52.86,3.55,28.84,7.56,61.53-6.27,84.25-4.24,6.93-10.9,13.98-18.77,19.85Z"/>
            <path class="b"
                  d="M50.23,34.07c-19.2,32.45-7.74,74.1,25.54,92.86,14.6,8.22,31.72,11.02,48.21,7.88,13.22-2.55,29.44-14.4,46.61-26.95,23.83-17.42,50.82-37.13,77.92-36.83,8.27,.12,17.86,2.22,27.01,5.93,1.64,.66,3.58-.03,4.52-1.61h0c.5-.85,.64-1.84,.38-2.79-.26-.95-.88-1.74-1.76-2.23l-60.86-34.29C173.57,11.13,141.48,0,112.99,0c-3.23,0-6.41,.14-9.56,.42-22.01,1.97-41.9,14.55-53.2,33.65Z"/>
        </g>
    </g>
    <g>
        <path class="b"
              d="M585.76,175h-148.54v.69c2.53,14.28,8.86,25.62,19,34.03,10.13,8.41,22.91,12.61,38.34,12.61,22.11,0,38-7.25,47.67-21.76h36.27c-6.68,16.12-17.44,28.85-32.3,38.17-14.85,9.33-32.07,13.99-51.64,13.99-26.95,0-49-8.46-66.15-25.39-17.16-16.93-25.74-38.4-25.74-64.42s8.58-47.5,25.74-64.43c17.15-16.93,39.21-25.39,66.15-25.39s48.59,8.46,65.63,25.39c17.04,16.93,25.56,38.4,25.56,64.43v12.09Zm-54.58-60.28c-10.14-7.48-22.34-11.23-36.62-11.23s-26.43,3.75-36.44,11.23c-10.02,7.49-16.64,17.56-19.86,30.23v.69h112.96v-.69c-3.23-12.66-9.91-22.74-20.04-30.23Z"/>
        <path class="b"
              d="M708.61,252.72h-41.8l-74.91-179.63h37.82l58.38,147.54h.33l58.38-147.54h36.72l-74.91,179.63Z"/>
        <path class="b"
              d="M976.19,164.29v88.43h-30.05v-40.07h-.69c-5.3,12.21-13.76,21.94-25.39,29.19-11.63,7.25-25.16,10.88-40.59,10.88-23.49,0-43.76-8.06-60.8-24.18-17.04-16.12-25.56-38-25.56-65.63,0-26.02,8.58-47.5,25.74-64.43,17.15-16.93,39.21-25.39,66.15-25.39s48.88,8.41,65.81,25.22c16.93,16.81,25.39,38.81,25.39,65.98Zm-133.69,41.45c10.82,11.06,24.98,16.58,42.49,16.58s31.66-5.53,42.49-16.58c10.82-11.05,16.23-25.33,16.23-42.83s-5.41-31.78-16.23-42.83c-10.83-11.06-24.99-16.58-42.49-16.58s-31.67,5.53-42.49,16.58c-10.83,11.05-16.23,25.33-16.23,42.83s5.41,31.78,16.23,42.83Z"/>
        <path class="b"
              d="M1161.59,252.72h-33.66v-101.33c0-15.35-3.84-27.04-11.52-35.08-7.68-8.03-17.77-12.05-30.29-12.05s-22.91,3.96-30.47,11.87c-7.56,7.92-11.34,19.66-11.34,35.25v101.33h-33.66v-101.33c0-25.74,6.67-45.23,20.02-58.46,13.34-13.23,30.76-19.84,52.26-19.84,28.35,0,48.77,11.34,61.29,34.01h.71c12.51-22.68,32.95-34.01,61.29-34.01,21.49,0,38.91,6.61,52.26,19.84,13.34,13.23,20.02,32.71,20.02,58.46v101.33h-33.66v-101.33c0-15.59-3.78-27.34-11.34-35.25-7.56-7.91-17.72-11.87-30.47-11.87s-22.56,4.02-30.11,12.05c-7.56,8.03-11.34,19.73-11.34,35.08v101.33Z"/>
    </g>
</svg>