<svg width="350" height="106" viewBox="0 0 350 106" fill="none" xmlns="http://www.w3.org/2000/svg">
    <path d="M305.424 83.9004V60.2204H303.056V70.6524H290.8V60.2204H288.432V83.9004H290.8V72.7964H303.056V83.9004H305.424ZM325.156 83.9004V66.3964H322.916V75.6444C322.916 77.6924 322.628 79.4204 321.092 80.8924C320.004 81.9164 318.852 82.3004 317.38 82.3004C313.38 82.3004 312.068 79.6444 312.068 76.0284V66.3964H309.828V76.0604C309.828 78.0124 310.116 80.1244 311.364 81.6924C312.804 83.5164 315.108 84.3164 317.38 84.3164C319.684 84.3164 321.956 83.3244 322.98 81.1804H323.044V83.9004H325.156ZM348.017 75.1004C348.017 69.8524 343.76 65.9484 338.609 65.9484C335.857 65.9484 333.361 67.2284 331.793 69.4684H331.729V60.2204H329.489V83.9004H331.729V80.8284H331.793C333.329 83.0684 335.889 84.3164 338.609 84.3164C343.857 84.3164 348.017 80.3804 348.017 75.1004ZM345.777 75.1964C345.777 79.2924 342.705 82.3004 338.609 82.3004C334.641 82.3004 331.601 79.0684 331.601 75.1644C331.601 71.2604 334.641 67.9644 338.609 67.9644C342.769 67.9644 345.777 71.0684 345.777 75.1964Z"
          fill="#1E2026"/>
    <path fill-rule="evenodd" clip-rule="evenodd"
          d="M140.19 48.3531H123.531V24.6631H140.038V27.2185H126.254V35.1544H139.615V37.6929H126.254V45.798H140.19V48.3531ZM153.044 48.3871H150.084L143.251 32.3287H145.991L151.589 45.8148L157.188 32.3287H159.86L153.044 48.3871ZM164.46 40.3324C164.46 43.6489 166.794 46.3055 170.194 46.3055C173.526 46.3055 175.893 43.7335 175.893 40.3324C175.893 36.9482 173.526 34.3762 170.194 34.3762C166.76 34.3762 164.46 37.0328 164.46 40.3324ZM178.261 48.3532H175.742V45.9671C174.473 47.6087 172.528 48.6747 169.889 48.6747C165.39 48.6747 161.89 45.1549 161.89 40.3324C161.89 35.5268 165.39 32.0069 169.889 32.0069C172.528 32.0069 174.473 33.0902 175.742 34.7146V32.3287H178.261V48.3532ZM210.818 38.4205V48.3531H208.298V39.2493C208.298 36.2035 206.607 34.4096 203.664 34.4096C200.975 34.4096 198.759 36.2712 198.759 39.317V48.3531H196.239V39.2493C196.239 36.2035 194.548 34.4096 191.622 34.4096C188.932 34.4096 186.716 36.2712 186.716 39.317V48.3531H184.18V32.3286H186.683V34.613C187.986 32.7006 190.116 32.0071 192.079 32.0071C194.869 32.0071 197.051 33.2762 198.083 35.3744C199.368 32.887 201.871 32.0071 204.121 32.0071C208.095 32.0071 210.818 34.5453 210.818 38.4205ZM123.305 59.8417H128.162L135.806 78.0585H135.942L143.517 59.8417H148.375V83.9043H145.113V64.1242H145.046L136.927 83.9043H134.753L126.634 64.1242H126.566V83.9043H123.305V59.8417ZM162.234 76.1554C161.509 76.1554 160.768 76.1951 160.009 76.2741C159.25 76.354 158.559 76.5068 157.937 76.7331C157.314 76.9599 156.804 77.2766 156.408 77.6845C156.012 78.0924 155.814 78.614 155.814 79.2481C155.814 80.1775 156.125 80.8455 156.748 81.2533C157.37 81.6612 158.214 81.8649 159.279 81.8649C160.116 81.8649 160.83 81.7239 161.419 81.4404C162.007 81.1572 162.483 80.7891 162.846 80.3354C163.207 79.8827 163.468 79.3787 163.627 78.8229C163.785 78.2681 163.865 77.7186 163.865 77.1751V76.1554H162.234ZM153.606 69.7657C154.466 68.9731 155.462 68.3782 156.595 67.9816C157.727 67.5853 158.859 67.3867 159.992 67.3867C161.169 67.3867 162.183 67.5342 163.032 67.8284C163.882 68.1232 164.578 68.5198 165.122 69.018C165.665 69.5167 166.067 70.0884 166.328 70.7344C166.588 71.3801 166.718 72.0548 166.718 72.7566V80.9814C166.718 81.5478 166.729 82.0688 166.752 82.5447C166.775 83.0205 166.808 83.4739 166.854 83.9043H164.136C164.069 83.0882 164.034 82.2728 164.034 81.457H163.967C163.287 82.4996 162.483 83.2364 161.555 83.6662C160.626 84.0964 159.55 84.3122 158.328 84.3122C157.58 84.3122 156.867 84.2101 156.187 84.0061C155.508 83.8022 154.914 83.4964 154.404 83.0882C153.895 82.6806 153.492 82.1766 153.198 81.576C152.904 80.9761 152.757 80.2793 152.757 79.4861C152.757 78.4442 152.988 77.5717 153.453 76.8687C153.917 76.1669 154.551 75.5943 155.355 75.1526C156.159 74.7108 157.099 74.3938 158.174 74.2011C159.25 74.0088 160.4 73.912 161.623 73.912H163.865V73.2322C163.865 72.8246 163.785 72.4167 163.627 72.0088C163.468 71.6009 163.23 71.2331 162.914 70.9045C162.596 70.5762 162.2 70.3152 161.724 70.1226C161.249 69.9302 160.683 69.8337 160.026 69.8337C159.437 69.8337 158.922 69.8904 158.481 70.0035C158.039 70.1172 157.637 70.2585 157.275 70.4286C156.912 70.5984 156.583 70.797 156.289 71.0232C155.995 71.25 155.712 71.465 155.44 71.6692L153.606 69.7657ZM171.168 67.7946H174.226V70.2754H174.294C174.498 69.8453 174.769 69.4546 175.109 69.1028C175.449 68.7522 175.828 68.4521 176.247 68.2024C176.666 67.9534 177.124 67.7551 177.623 67.6075C178.121 67.4606 178.619 67.3867 179.118 67.3867C179.615 67.3867 180.069 67.4547 180.476 67.5906L180.34 70.8873C180.091 70.8193 179.842 70.7632 179.593 70.7174C179.344 70.672 179.095 70.6495 178.846 70.6495C177.351 70.6495 176.207 71.0689 175.415 71.907C174.622 72.7456 174.226 74.0479 174.226 75.8154V83.9043H171.168V67.7946ZM183.737 58.2104H186.795V74.7957L193.724 67.8284H197.971L190.463 75.1359L198.616 83.9042H194.268L186.795 75.5435V83.9042H183.737V58.2104ZM213.325 74.5238C213.302 73.8443 213.195 73.2212 213.002 72.6545C212.81 72.0886 212.521 71.5959 212.136 71.1764C211.751 70.7572 211.27 70.4286 210.693 70.1905C210.115 69.9527 209.441 69.8337 208.671 69.8337C207.924 69.8337 207.238 69.9756 206.616 70.2585C205.993 70.5423 205.466 70.9101 205.036 71.3634C204.606 71.8167 204.272 72.3205 204.034 72.8753C203.796 73.4308 203.678 73.9802 203.678 74.5238H213.325ZM203.678 76.9708C203.678 77.6735 203.83 78.3135 204.136 78.8912C204.442 79.4689 204.844 79.9617 205.342 80.3696C205.84 80.7772 206.418 81.0951 207.075 81.321C207.731 81.5478 208.411 81.6612 209.113 81.6612C210.064 81.6612 210.89 81.4403 211.592 80.9983C212.294 80.5563 212.94 79.9733 213.529 79.248L215.839 81.0152C214.14 83.2132 211.762 84.3122 208.705 84.3122C207.437 84.3122 206.287 84.0963 205.257 83.6662C204.226 83.2363 203.355 82.6414 202.641 81.8821C201.928 81.123 201.379 80.2283 200.994 79.197C200.609 78.1666 200.416 77.0507 200.416 75.8493C200.416 74.6488 200.625 73.5329 201.045 72.5016C201.463 71.4709 202.041 70.5761 202.777 69.8168C203.513 69.058 204.391 68.4631 205.41 68.0326C206.429 67.6025 207.538 67.3867 208.739 67.3867C210.166 67.3867 211.372 67.6363 212.357 68.1345C213.342 68.6329 214.152 69.2848 214.786 70.0887C215.42 70.8932 215.878 71.7995 216.162 72.8076C216.445 73.8161 216.586 74.8414 216.586 75.8834V76.9708H203.678ZM228.883 70.4454H224.501V77.7526C224.501 78.2063 224.513 78.653 224.535 79.0951C224.557 79.5368 224.642 79.9337 224.79 80.2849C224.937 80.6361 225.164 80.9193 225.469 81.1342C225.775 81.3497 226.222 81.4572 226.811 81.4572C227.173 81.4572 227.547 81.423 227.932 81.355C228.317 81.2871 228.668 81.163 228.985 80.9813V83.7682C228.623 83.9719 228.153 84.1135 227.576 84.193C226.998 84.272 226.551 84.3121 226.234 84.3121C225.056 84.3121 224.144 84.1473 223.499 83.8193C222.854 83.491 222.378 83.0662 222.072 82.5449C221.767 82.0239 221.585 81.4402 221.529 80.7943C221.472 80.1489 221.444 79.4976 221.444 78.84V70.4454H217.911V67.7945H221.444V63.2745H224.501V67.7945H228.883V70.4454ZM233.062 83.9044H236.119V67.7947H233.062V83.9044ZM232.348 62.0169C232.348 61.4051 232.569 60.8784 233.011 60.4364C233.452 59.9947 233.979 59.7738 234.59 59.7738C235.202 59.7738 235.728 59.9947 236.17 60.4364C236.612 60.8784 236.832 61.4051 236.832 62.0169C236.832 62.6284 236.612 63.1553 236.17 63.5971C235.728 64.0388 235.202 64.26 234.59 64.26C233.979 64.26 233.452 64.0388 233.011 63.5971C232.569 63.1553 232.348 62.6284 232.348 62.0169ZM240.977 67.7946H244.034V70.2754H244.102C244.487 69.4148 245.155 68.7178 246.106 68.1852C247.057 67.6533 248.155 67.3867 249.401 67.3867C250.171 67.3867 250.913 67.5054 251.626 67.7435C252.34 67.9816 252.962 68.35 253.495 68.8481C254.026 69.3468 254.451 69.9869 254.768 70.7685C255.086 71.5498 255.244 72.4737 255.244 73.5385V83.9043H252.187V74.3878C252.187 73.64 252.085 73.0003 251.881 72.4677C251.677 71.9355 251.405 71.505 251.066 71.1764C250.726 70.8481 250.335 70.61 249.894 70.4624C249.452 70.3152 248.994 70.2416 248.518 70.2416C247.884 70.2416 247.295 70.3434 246.752 70.5473C246.208 70.7513 245.732 71.0743 245.325 71.516C244.917 71.9577 244.6 72.5185 244.373 73.1983C244.147 73.8781 244.034 74.6826 244.034 75.6115V83.9043H240.977V67.7946ZM267.643 70.2416C266.828 70.2416 266.092 70.3835 265.435 70.6664C264.778 70.9499 264.223 71.335 263.77 71.8218C263.317 72.3096 262.966 72.8982 262.717 73.589C262.468 74.2804 262.344 75.0339 262.344 75.8493C262.344 77.4809 262.819 78.7891 263.77 79.7747C264.721 80.7606 266.012 81.2534 267.643 81.2534C269.274 81.2534 270.565 80.7606 271.516 79.7747C272.467 78.7891 272.942 77.4809 272.942 75.8493C272.942 75.0339 272.818 74.2804 272.569 73.589C272.32 72.8982 271.968 72.3096 271.516 71.8218C271.062 71.335 270.508 70.9499 269.851 70.6664C269.194 70.3835 268.458 70.2416 267.643 70.2416ZM276 83.7681C276 84.992 275.79 86.1073 275.371 87.1161C274.952 88.1236 274.358 88.9964 273.588 89.7329C272.818 90.4691 271.89 91.0412 270.802 91.449C269.715 91.8569 268.515 92.0609 267.202 92.0609C265.661 92.0609 264.251 91.8453 262.972 91.4152C261.692 90.9845 260.475 90.2367 259.32 89.1721L261.393 86.5891C262.185 87.45 263.046 88.1013 263.974 88.5431C264.903 88.9854 265.956 89.2063 267.133 89.2063C268.266 89.2063 269.206 89.0415 269.953 88.7135C270.701 88.3845 271.295 87.9597 271.736 87.4388C272.178 86.9175 272.489 86.3226 272.671 85.6546C272.852 84.9858 272.942 84.3119 272.942 83.6321V81.2534H272.841C272.251 82.2277 271.453 82.9473 270.445 83.4112C269.438 83.8761 268.379 84.108 267.269 84.108C266.092 84.108 264.999 83.899 263.991 83.4795C262.983 83.0604 262.117 82.4824 261.393 81.7462C260.667 81.0099 260.102 80.1375 259.694 79.129C259.286 78.1212 259.083 77.0276 259.083 75.8493C259.083 74.6717 259.275 73.5668 259.66 72.5358C260.045 71.5051 260.594 70.6044 261.307 69.8338C262.021 69.0637 262.882 68.4632 263.889 68.0327C264.897 67.6023 266.024 67.3867 267.269 67.3867C268.357 67.3867 269.415 67.6248 270.445 68.1004C271.476 68.5763 272.285 69.2451 272.875 70.1057H272.942V67.7946H276V83.7681Z"
          fill="#1E2026"/>
    <mask id="mask0" mask-type="alpha" maskUnits="userSpaceOnUse" x="46" y="29" width="60" height="77">
        <path fill-rule="evenodd" clip-rule="evenodd" d="M46.4258 29.7725H105.723V106H46.4258V29.7725Z" fill="white"/>
    </mask>
    <g mask="url(#mask0)">
        <path fill-rule="evenodd" clip-rule="evenodd"
              d="M69.1721 32.8364C67.5143 33.7431 65.9744 34.8263 64.5745 36.0598C61.4954 38.7739 59.0973 42.2154 57.6262 46.1025C57.3061 46.9536 57.0672 47.8991 56.8951 48.9248C56.8091 49.4378 56.7396 49.9706 56.6847 50.5216C56.6666 50.7051 56.65 50.8909 56.6349 51.0785C56.3494 54.6429 56.6298 58.9079 56.999 63.3982C57.0571 64.1071 57.1173 64.8216 57.1782 65.5401C57.2903 66.8691 57.4046 68.2198 57.5078 69.583C57.6114 70.9459 57.7043 72.3206 57.7743 73.6972C57.809 74.3853 57.8384 75.0737 57.8603 75.7618C57.871 76.1056 57.8802 76.4494 57.8876 76.7925C57.9019 77.4792 57.9078 78.1643 57.9042 78.8468C57.9028 79.1882 57.8986 79.5284 57.8918 79.8683C57.8784 80.5475 57.8544 81.2235 57.8188 81.8947C57.801 82.2304 57.7799 82.565 57.7559 82.8981C57.3957 87.8954 56.3204 92.595 53.8787 96.4607C53.1799 97.5597 52.3147 98.6634 51.3224 99.7324C50.046 101.107 48.5582 102.424 46.9399 103.603C46.8114 103.697 46.7052 103.813 46.6236 103.943C46.5827 104.008 46.5479 104.077 46.5195 104.148C46.491 104.219 46.4687 104.293 46.453 104.369C46.3975 104.633 46.4272 104.917 46.539 105.182C46.5551 105.22 46.5675 105.259 46.5871 105.296L46.5874 105.296C46.7557 105.613 47.0375 105.843 47.3805 105.945C47.6378 106.021 47.9066 106.018 48.1585 105.938C48.2422 105.912 48.3241 105.877 48.4033 105.833L70.526 93.7367C72.0331 92.9129 73.4816 92.0987 74.8753 91.2921C75.8043 90.7545 76.7082 90.2201 77.5882 89.6887C79.3483 88.626 81.0117 87.5751 82.5832 86.5316C84.5477 85.2272 86.3687 83.935 88.0558 82.6466C88.7303 82.1316 89.3837 81.6165 90.016 81.1021C90.332 80.845 90.6432 80.5876 90.9491 80.3302C95.5364 76.4704 98.9659 72.603 101.488 68.5104C102.098 67.5207 102.655 66.5182 103.162 65.4997C105.489 60.8253 106.227 55.5584 105.39 50.4788C105.27 49.753 105.118 49.0314 104.934 48.3156C104.444 46.4071 103.726 44.5419 102.779 42.7632C100.87 39.1744 98.1983 36.2581 95.0691 34.1049C93.9163 33.312 92.7013 32.6221 91.4396 32.0403C84.5893 28.8829 76.3559 28.9087 69.1721 32.8364Z"
              fill="#F9C32F"/>
    </g>
    <mask id="mask1" mask-type="alpha" maskUnits="userSpaceOnUse" x="0" y="29" width="54" height="77">
        <path fill-rule="evenodd" clip-rule="evenodd" d="M0 29.0518H53.5956V105.897H0V29.0518Z" fill="white"/>
    </mask>
    <g mask="url(#mask1)">
        <path fill-rule="evenodd" clip-rule="evenodd"
              d="M50.6213 93.1543C50.7159 92.9818 50.8088 92.8084 50.8993 92.6333C51.1714 92.109 51.4251 91.5735 51.6586 91.0279C51.9705 90.3006 52.2473 89.5551 52.4876 88.7937C52.6075 88.4128 52.7182 88.0281 52.8197 87.6398C52.8701 87.4459 52.9185 87.2506 52.9642 87.0544C53.1532 86.2475 53.3006 85.4255 53.406 84.5901C53.4517 84.2265 53.4897 83.8599 53.519 83.4912C53.5695 82.8562 53.5956 82.2141 53.5956 81.5666C53.5956 80.4127 53.5101 79.2674 53.3478 78.1373C52.7351 73.8658 50.9874 69.8208 48.2612 66.4294C48.0312 66.1433 47.7948 65.8618 47.5508 65.5858C45.494 63.2622 41.9515 61.2652 37.7894 59.3345C36.9966 58.967 36.1812 58.6015 35.3495 58.237C35.1415 58.1455 34.9326 58.0547 34.7228 57.9633C33.4633 57.4165 32.1699 56.8699 30.8631 56.3181C29.654 55.8069 28.4247 55.2877 27.1904 54.7539C25.3388 53.9527 23.4748 53.1194 21.6485 52.233C21.0403 51.9376 20.4359 51.6363 19.8371 51.3281C18.341 50.5584 16.883 49.7468 15.4911 48.8826C11.3162 46.2892 7.74167 43.2179 5.54655 39.3528C5.27921 38.8799 5.02581 38.3806 4.78755 37.8587C3.75467 35.5978 3.00368 32.9139 2.63545 30.1285C2.5951 29.8215 2.43457 29.5526 2.20135 29.3602C1.96813 29.1675 1.66251 29.0518 1.33137 29.0518C1.05602 29.0518 0.799952 29.1349 0.587502 29.2765C0.516883 29.3237 0.450715 29.3777 0.390481 29.4371C0.330247 29.4965 0.275354 29.5618 0.227583 29.6318C0.0839712 29.8417 0 30.0943 0 30.3663V54.8967C0 56.7568 0.0237374 58.5502 0.0721025 60.28C0.136194 62.5866 0.244496 64.7807 0.397602 66.8706C0.435879 67.393 0.477123 67.909 0.521037 68.4184C1.57824 80.6473 4.2858 89.1942 9.03595 95.8343C9.74007 96.819 10.5163 97.7414 11.3551 98.5972C11.8586 99.1108 12.3847 99.6003 12.9316 100.065C17.3046 103.781 22.9971 105.897 28.9864 105.897C38.3155 105.897 46.4488 100.738 50.6213 93.1543Z"
              fill="#F9C32F"/>
    </g>
    <path fill-rule="evenodd" clip-rule="evenodd"
          d="M18.6288 45.4063C20.2406 46.3253 21.939 47.055 23.6911 47.5897C27.5452 48.7658 31.6559 48.998 35.6613 48.2249C36.5373 48.054 37.4506 47.7663 38.3959 47.3816C38.8689 47.1892 39.3498 46.9728 39.8379 46.7347C40.0008 46.6551 40.1646 46.5735 40.3293 46.4892C43.454 44.8915 46.8728 42.4587 50.4334 39.8366C50.996 39.4227 51.5619 39.0039 52.1307 38.5829C53.1828 37.8043 54.2531 37.0125 55.3382 36.2235C56.4233 35.4347 57.5238 34.6489 58.638 33.881C59.1946 33.4971 59.7551 33.1177 60.3183 32.7452C60.5999 32.5587 60.8824 32.3741 61.1654 32.1909C61.7319 31.8252 62.3013 31.4669 62.8728 31.1181C63.1588 30.9438 63.4454 30.7716 63.7327 30.6024C64.3068 30.2634 64.8842 29.9351 65.4634 29.6189C65.7527 29.461 66.0432 29.3063 66.3337 29.1546C70.6945 26.8807 75.1744 25.3578 79.662 25.4077C80.9408 25.4258 82.3081 25.5801 83.7128 25.8592C85.5189 26.2181 87.3861 26.7833 89.2044 27.5293C89.3492 27.5884 89.5008 27.6175 89.6513 27.6187C89.7269 27.6193 89.802 27.613 89.8765 27.6003C89.9507 27.5875 90.0239 27.5676 90.0952 27.5418C90.3447 27.4522 90.5669 27.2809 90.7307 27.0505C90.7542 27.0178 90.78 26.9873 90.8008 26.9519V26.9516C90.9788 26.648 91.0257 26.2932 90.934 25.9545C90.8648 25.6998 90.7239 25.4765 90.5275 25.3073C90.4622 25.2506 90.3907 25.2002 90.3138 25.1562L68.808 12.8906C67.3434 12.0552 65.9162 11.2632 64.5243 10.5139C63.5965 10.014 62.6843 9.53337 61.7865 9.07146C59.9919 8.14733 58.2567 7.29801 56.5752 6.52143C54.4733 5.55069 52.4553 4.69366 50.5097 3.94735C49.7314 3.64871 48.9647 3.36758 48.209 3.10397C47.8312 2.97216 47.4559 2.84481 47.0832 2.72161C41.4951 0.87455 36.4969 0 31.7782 0C30.637 0 29.5128 0.05106 28.4004 0.151696C23.2962 0.614501 18.5158 2.71152 14.7036 6.02893C14.1591 6.50302 13.6342 7.00204 13.1312 7.52481C11.7892 8.91827 10.6014 10.4806 9.60327 12.1885C7.58915 15.6347 6.52986 19.371 6.34352 23.0972C6.27468 24.4702 6.32453 25.8414 6.48892 27.1963C7.38115 34.5519 11.6456 41.4233 18.6288 45.4063Z"
          fill="#F9C32F"/>
    <path fill-rule="evenodd" clip-rule="evenodd"
          d="M89.0741 48.9105L71.8778 31.6911L71.8128 31.5768L71.4778 31.7187L70.9108 31.9764L70.3823 32.2343L69.7895 32.5051L69.4067 32.7577L69.0227 32.9533L68.7397 33.1024L68.5243 33.2169L68.2768 33.3562L64.8806 33.0252L64.8562 29.955L65.8286 29.4204L66.9546 28.832L67.6504 28.4897L68.3406 28.1694L68.3427 28.1691L57.2902 17.1114C55.4577 15.278 52.4866 15.278 50.6544 17.1114L18.8703 48.9105C17.038 50.7439 17.038 53.716 18.8703 55.5494L50.6544 87.3485C51.2081 87.903 51.8668 88.2866 52.5656 88.5057C52.719 88.2133 53.1371 86.2311 53.1371 86.2311L55.1906 82.0383L57.7207 80.8716C57.7207 80.8716 57.819 81.0295 57.8258 81.4351C57.8329 81.8403 57.7347 82.9597 57.6647 84.1409C57.5807 85.3218 57.2092 87.3675 57.2092 87.3675L57.6543 86.9843L89.0741 55.5494C90.9066 53.716 90.9066 50.7439 89.0741 48.9105Z"
          fill="black" fill-opacity="0.1"/>
    <path fill-rule="evenodd" clip-rule="evenodd"
          d="M82.9313 56.4281L52.9041 86.4698C50.5864 88.7885 46.8291 88.7885 44.5117 86.4698L14.4841 56.4281C12.1668 54.1093 12.1668 50.3502 14.4841 48.0317L44.5117 17.9901C46.8291 15.6713 50.5864 15.6713 52.9041 17.9901L82.9313 48.0317C85.249 50.3502 85.249 54.1093 82.9313 56.4281Z"
          fill="white"/>
    <path fill-rule="evenodd" clip-rule="evenodd"
          d="M78.5228 55.5889L52.0645 82.0597C50.2106 83.9144 47.2045 83.9144 45.3506 82.0597L18.8926 55.5889C17.0384 53.7342 17.0384 50.7267 18.8926 48.8716L45.3506 22.4009C47.2045 20.5461 50.2106 20.5461 52.0645 22.4009L78.5228 48.8716C80.3767 50.7267 80.3767 53.7342 78.5228 55.5889Z"
          fill="#1E2026"/>
    <path fill-rule="evenodd" clip-rule="evenodd"
          d="M32.768 51.4222H42.0119C41.5841 48.6495 39.9661 47.0304 37.4923 47.0304C34.721 47.0304 33.1772 48.8172 32.768 51.4222ZM45.9921 52.9293C45.9921 53.4319 45.955 53.9345 45.9176 54.381H32.7496C33.27 57.5817 35.5206 58.9215 38.0502 58.9215C39.8358 58.9215 41.7327 58.2143 43.2024 57.042L45.1367 59.8147C42.9608 61.6754 40.5055 62.3267 37.8083 62.3267C32.4704 62.3267 28.6943 58.605 28.6943 52.9483C28.6943 47.3656 32.3214 43.5693 37.5665 43.5693C42.5514 43.5693 45.9737 47.3656 45.9921 52.9293Z"
          fill="white"/>
    <path fill-rule="evenodd" clip-rule="evenodd" d="M42.9414 65.7435H63.2396V38.4971H42.9414V65.7435Z" fill="#1E2026"/>
    <path fill-rule="evenodd" clip-rule="evenodd"
          d="M66.0081 61V51.8782C66.0081 49.7756 65.4381 47.613 62.8572 47.613C61.7466 47.613 60.6662 48.2058 60.0962 49.1534C59.5255 50.0716 59.4958 51.4635 59.4958 52.5003V61H55.5039V51.8782C55.5039 49.716 54.6939 47.613 52.1728 47.613C49.1718 47.613 48.9916 50.5749 48.9916 52.7961V61H45V44.5629H48.6618V45.9547H48.7216C49.6217 44.5039 51.4529 44 53.0735 44C55.054 44 56.7948 44.9182 57.8751 46.5766C59.1957 44.7108 61.0263 44 63.2471 44C65.378 44 67.4489 44.7994 68.7395 46.5469C69.73 47.9094 70 49.7756 70 51.4042V61H66.0081Z"
          fill="white"/>
</svg>
